<svg width="1043" height="123" viewBox="0 0 1043 123" fill="none" xmlns="http://www.w3.org/2000/svg" >
<g clip-path="url(#clip0_7_494)" >
<path d="M55.18 101.34C57.42 101.34 57.94 102.72 58.63 104.79L61.91 115.14C62.25 116.35 62.94 116.86 63.98 116.86H65.36C66.39 116.86 67.08 116.34 67.43 115.14L70.71 104.79C71.4 102.72 71.57 101.17 75.88 101.17C85.54 101.17 94.67 99.7898 101.57 93.0698C104.85 89.7898 108.81 88.5898 112.61 91.1698L115.89 93.4098C120.55 96.5098 121.93 102.38 118.13 106.34C108.47 116.17 94.85 122.03 79.33 122.03H53.47C22.76 122.03 0 99.2698 0 69.0998V54.2698C0 24.0998 22.76 1.33984 53.45 1.33984H79.31C94.83 1.33984 108.45 7.19984 118.11 17.0298C121.9 20.9998 120.52 26.8598 115.87 29.9598L112.59 32.1998C108.8 34.7898 104.83 33.5798 101.55 30.2998C94.65 23.5798 85.51 22.1998 75.86 22.1998L55.17 22.0298C33.79 21.8598 22.41 35.1298 22.41 54.2698V69.0998C22.41 88.2398 33.79 101.34 55.17 101.34H55.18Z" fill="black"/>
<path d="M151.56 9.61008L151.39 114.62C151.39 116.17 152.08 116.86 153.63 116.86H155.01C156.22 116.86 156.91 116.34 157.25 115.31L160.53 104.96C161.22 102.89 161.22 101.34 165.53 101.34H211.91C216.39 101.34 219.67 104.62 219.67 109.1V114.27C219.67 118.75 216.39 122.03 211.91 122.03H136.73C132.25 122.03 128.97 118.75 128.97 114.27L129.14 9.61008C129.14 4.95008 132.76 1.33008 137.42 1.33008H143.28C147.94 1.33008 151.56 4.95008 151.56 9.61008Z" fill="black"/>
<path d="M345.88 54.2698V69.0998C345.88 99.2698 323.12 122.03 292.43 122.03H271.39C240.7 122.03 217.94 99.2698 217.94 69.0998V54.2698C217.94 24.0998 240.7 1.33984 271.39 1.33984H292.43C323.12 1.33984 345.88 24.0998 345.88 54.2698ZM271.39 101.34H292.43C312.09 101.34 323.47 89.2698 323.47 69.0998V54.2698C323.47 34.0998 312.09 22.0298 292.43 22.0298H271.39C251.73 22.0298 240.35 34.0998 240.35 54.2698V69.0998C240.35 89.2698 251.73 101.34 271.39 101.34Z" fill="black"/>
<path d="M411.4 101.34H425.54C445.2 101.34 456.58 89.2701 456.58 69.1001V9.61008C456.58 4.95008 460.2 1.33008 464.86 1.33008H470.72C475.38 1.33008 479 4.95008 479 9.61008V69.1001C479 99.2701 456.24 122.03 425.55 122.03H411.41C380.72 122.03 357.96 99.2701 357.96 69.1001V9.61008C357.96 4.95008 361.58 1.33008 366.24 1.33008H372.1C376.76 1.33008 380.38 4.95008 380.38 9.61008V69.1001C380.38 89.2701 391.76 101.34 411.42 101.34H411.4Z" fill="black"/>
<path d="M501.75 1.33984H555.37C585.72 1.33984 609.17 24.0998 609.17 52.5498V70.8298C609.17 99.2798 586.07 122.04 555.37 122.04H501.75C495.89 122.04 491.06 117.21 491.06 111.35V12.0298C491.06 6.16984 495.89 1.33984 501.75 1.33984ZM515.72 101.35H555.38C575.04 101.35 586.42 89.2798 586.42 70.8298V52.5498C586.42 34.0998 575.04 22.0298 555.38 22.0298H515.72C514.17 22.0298 513.48 22.7198 513.48 24.2698V99.0998C513.48 100.65 514.17 101.34 515.72 101.34V101.35Z" fill="black"/>
<path d="M608.3 14.2698V9.09984C608.3 4.61984 611.58 1.33984 616.06 1.33984H709.17C713.65 1.33984 716.93 4.61984 716.93 9.09984V14.2698C716.93 18.7498 713.65 22.0298 709.17 22.0298H673.82L673.65 113.76C673.65 118.42 670.03 122.04 665.37 122.04H659.51C654.85 122.04 651.23 118.42 651.23 113.76L651.4 22.0298H616.05C611.57 22.0298 608.29 18.7498 608.29 14.2698H608.3Z" fill="black"/>
<path d="M716.06 91.6901V79.4501C716.06 61.1701 729.68 49.2801 748.82 49.2801H800.03C801.58 49.2801 802.27 48.5901 802.27 47.0401V35.1401C802.27 25.6601 798.65 22.0401 789.17 22.0401H732.79C728.31 22.0401 725.03 18.7601 725.03 14.2801V9.1101C725.03 4.6301 728.31 1.3501 732.79 1.3501H789.17C813.14 1.3501 824.69 13.2501 824.69 36.8701V111.34C824.69 117.2 819.86 122.03 814 122.03H748.48C729.69 122.03 716.06 110.13 716.06 91.6801V91.6901ZM750.2 101.35H800.03C801.58 101.35 802.27 100.66 802.27 99.1101V56.6901C802.27 55.1401 801.58 54.4501 800.03 54.4501H798.65C797.44 54.4501 796.75 54.9701 796.41 56.0001L793.13 66.3501C792.44 68.4201 792.44 69.9701 788.13 69.9701H750.54C742.44 69.9701 738.47 72.9001 738.47 81.1801V89.9701C738.47 98.4201 742.44 101.35 750.19 101.35H750.2Z" fill="black"/>
<path d="M859.35 9.61008L859.18 114.62C859.18 116.17 859.87 116.86 861.42 116.86H862.8C864.01 116.86 864.7 116.34 865.04 115.31L868.32 104.96C869.01 102.89 869.01 101.34 873.32 101.34H919.7C924.18 101.34 927.46 104.62 927.46 109.1V114.27C927.46 118.75 924.18 122.03 919.7 122.03H844.52C840.04 122.03 836.76 118.75 836.76 114.27L836.93 9.61008C836.93 4.95008 840.55 1.33008 845.21 1.33008H851.07C855.73 1.33008 859.35 4.95008 859.35 9.61008Z" fill="black"/>
<path d="M944.35 1.34007H950.21C954.87 1.34007 958.49 4.96007 958.49 9.62007V50.4801C958.49 51.3401 959.18 52.0301 960.04 52.0301L972.28 52.2001C973.49 52.2001 974.69 51.6801 975.38 50.8201L1017.28 3.41007C1020.38 -0.209933 1025.56 -0.559933 1029.35 2.72007L1032.28 5.31007C1035.9 8.59007 1036.07 13.5901 1032.8 17.2101L993.83 60.8301L1039.69 103.76C1043.31 107.21 1043.66 112.55 1040.21 116.35L1036.93 119.97C1033.48 123.76 1028.31 123.94 1024.52 120.32L975.03 73.7701C974.34 73.0801 973.31 72.7401 972.27 72.7401H960.03C959.17 72.7401 958.48 73.4301 958.48 74.2901V113.78C958.48 118.44 954.86 122.06 950.2 122.06H944.34C939.68 122.06 936.06 118.44 936.06 113.78V9.61007C936.06 4.95007 939.68 1.33007 944.34 1.33007L944.35 1.34007Z" fill="black"/>
</g>
<defs>
<clipPath id="clip0_7_494">
<rect width="1042.62" height="122.46" fill="white" transform="translate(0 0.459961)"/>
</clipPath>
</defs>
</svg>
