<svg width="121" height="121" viewBox="0 0 121 121" fill="none" xmlns="http://www.w3.org/2000/svg">
<g clip-path="url(#clip0_1_354)">
<path d="M55.18 100.01C57.42 100.01 57.94 101.39 58.63 103.46L61.91 113.81C62.25 115.02 62.94 115.53 63.98 115.53H65.36C66.39 115.53 67.08 115.01 67.43 113.81L70.71 103.46C71.4 101.39 71.57 99.84 75.88 99.84C85.54 99.84 94.67 98.46 101.57 91.74C104.85 88.46 108.81 87.26 112.61 89.84L115.89 92.08C120.55 95.18 121.93 101.05 118.13 105.01C108.47 114.84 94.85 120.7 79.33 120.7H53.47C22.76 120.7 0 97.94 0 67.76V52.93C0 22.76 22.76 0 53.45 0H79.31C94.83 0 108.45 5.86 118.11 15.69C121.9 19.66 120.52 25.52 115.87 28.62L112.59 30.86C108.8 33.45 104.83 32.24 101.55 28.96C94.65 22.24 85.51 20.86 75.86 20.86L55.17 20.69C33.79 20.52 22.41 33.79 22.41 52.93V67.76C22.41 86.9 33.79 100 55.17 100L55.18 100.01Z" fill="#FFFEFF"/>
</g>
<defs>
<clipPath id="clip0_1_354">
<rect width="120.3" height="120.7" fill="white"/>
</clipPath>
</defs>
</svg>
